<svg width="25" height="25" viewBox="0 0 25 25" fill="none" xmlns="http://www.w3.org/2000/svg">
<g clip-path="url(#clip0_767_157)">
<path d="M23.2871 19.1758C23.2871 19.7062 23.0764 20.2149 22.7013 20.59C22.3262 20.9651 21.8175 21.1758 21.2871 21.1758H3.28711C2.75668 21.1758 2.24797 20.9651 1.8729 20.59C1.49782 20.2149 1.28711 19.7062 1.28711 19.1758V8.17578C1.28711 7.64535 1.49782 7.13664 1.8729 6.76157C2.24797 6.38649 2.75668 6.17578 3.28711 6.17578H7.28711L9.28711 3.17578H15.2871L17.2871 6.17578H21.2871C21.8175 6.17578 22.3262 6.38649 22.7013 6.76157C23.0764 7.13664 23.2871 7.64535 23.2871 8.17578V19.1758Z" stroke="black" stroke-width="2" stroke-linecap="round" stroke-linejoin="round"/>
<path d="M12.2871 17.1758C14.4962 17.1758 16.2871 15.3849 16.2871 13.1758C16.2871 10.9666 14.4962 9.17578 12.2871 9.17578C10.078 9.17578 8.28711 10.9666 8.28711 13.1758C8.28711 15.3849 10.078 17.1758 12.2871 17.1758Z" stroke="black" stroke-width="2" stroke-linecap="round" stroke-linejoin="round"/>
</g>
<defs>
<clipPath id="clip0_767_157">
<rect width="24" height="24" fill="white" transform="translate(0.287109 0.175781)"/>
</clipPath>
</defs>
</svg>
